<svg t="1629003839651" class="icon" viewBox="0 0 1077 1024" version="1.1" xmlns="http://www.w3.org/2000/svg" p-id="6468" width="200" height="200"><path d="M425.984 0a243.092211 243.092211 0 1 0 0 486.184421 243.092211 243.092211 0 0 0 0-486.184421m0 53.894737a189.386105 189.386105 0 0 1 189.170526 189.170526c0 104.367158-84.884211 189.224421-189.170526 189.224421A189.386105 189.386105 0 0 1 236.786526 243.065263 189.386105 189.386105 0 0 1 425.957053 53.894737M726.635789 949.894737H114.661053S53.894737 958.356211 53.894737 889.263158v-90.920421c0-118.864842 96.714105-215.578947 215.578947-215.578948h220.483369v-0.026947h0.134736a26.947368 26.947368 0 0 0 0-53.894737l-0.134736 0.053895v-0.026947H269.473684c-148.803368 0-269.473684 120.643368-269.473684 269.473684v151.578947c0 53.894737 53.894737 53.894737 53.894737 53.894737h672.741052a26.947368 26.947368 0 0 0 0-53.894737" p-id="6469"></path><path d="M954.799158 809.498947a82.324211 82.324211 0 0 0-24.064 56.185264 22.986105 22.986105 0 0 1-12.314947 20.291368c-9.916632 4.931368-20.210526 9.162105-30.800843 12.8-8.218947 2.775579-17.084632 0.080842-23.417263-5.820632a82.809263 82.809263 0 0 0-56.72421-22.393263c-21.935158 0-41.714526 8.596211-56.535579 22.501053-6.278737 5.901474-15.090526 8.569263-23.255579 5.820631a250.125474 250.125474 0 0 1-30.82779-12.746105 23.228632 23.228632 0 0 1-12.395789-20.37221 82.944 82.944 0 0 0-24.306526-56.239158l-19.644632 19.644631c8.892632 8.892632 13.904842 20.075789 15.494737 31.636211 0.808421 5.739789 0.700632 11.533474-0.269474 17.219368a23.228632 23.228632 0 0 0 11.37179 23.794527 274.755368 274.755368 0 0 0 61.763368 26.866526c12.934737 3.772632 27.486316 0 36.163368-10.320842a56.589474 56.589474 0 0 1 9.216-8.730948 54.972632 54.972632 0 0 1 33.226106-11.317894c12.557474 0 24.010105 4.365474 33.333894 11.425684 4.608 3.476211 8.650105 7.653053 11.964632 12.368842a23.255579 23.255579 0 0 0 24.899368 8.784842 275.132632 275.132632 0 0 0 62.679579-24.683789c11.856842-6.467368 19.456-19.429053 18.270316-32.87579a55.834947 55.834947 0 0 1 0.323369-12.69221c1.616842-11.506526 6.656-22.635789 15.494736-31.474527l-19.644631-19.671579z" p-id="6470"></path><path d="M1054.908632 695.403789a54.972632 54.972632 0 0 1-11.290948-33.226105c0-12.557474 4.338526-24.037053 11.398737-33.333895 3.503158-4.581053 7.653053-8.623158 12.39579-11.964631a23.201684 23.201684 0 0 0 8.757894-24.899369 275.779368 275.779368 0 0 0-24.656842-62.652631c-6.467368-11.856842-19.402105-19.482947-32.875789-18.297263-4.230737 0.377263-8.488421 0.269474-12.719158-0.323369a54.972632 54.972632 0 0 1-31.474527-15.494737 55.134316 55.134316 0 0 1-15.521684-31.63621 56.751158 56.751158 0 0 1 0.296421-17.219368 23.255579 23.255579 0 0 0-11.371789-23.821474 275.563789 275.563789 0 0 0-61.763369-26.866526c-12.934737-3.772632-27.486316 0-36.163368 10.320842-2.694737 3.260632-5.820632 6.197895-9.216 8.757894a54.972632 54.972632 0 0 1-33.226105 11.317895c-12.557474 0-24.037053-4.365474-33.360842-11.425684a55.430737 55.430737 0 0 1-11.964632-12.368842 23.174737 23.174737 0 0 0-24.872421-8.784842 277.180632 277.180632 0 0 0-62.679579 24.656842c-11.829895 6.467368-19.456 19.429053-18.270316 32.875789 0.377263 4.230737 0.269474 8.488421-0.323368 12.719158-1.616842 11.506526-6.656 22.635789-15.494737 31.474526-8.892632 8.892632-20.075789 13.904842-31.663158 15.521685a56.778105 56.778105 0 0 1-17.219368-0.269474 23.228632 23.228632 0 0 0-23.794527 11.344842 277.126737 277.126737 0 0 0-26.866526 61.763369c-3.772632 12.934737 0 27.513263 10.320842 36.163368 3.260632 2.721684 6.197895 5.820632 8.757895 9.216 7.006316 9.296842 11.317895 20.749474 11.317895 33.226105 0 12.557474-4.365474 24.037053-11.425685 33.333895-3.503158 4.634947-7.68 8.677053-12.395789 11.991579a23.174737 23.174737 0 0 0-8.757895 24.872421 277.180632 277.180632 0 0 0 24.656842 62.679579c6.467368 11.856842 19.429053 19.456 32.87579 18.270316 4.203789-0.377263 8.488421-0.269474 12.69221 0.323368 11.533474 1.616842 22.635789 6.656 31.528421 15.494737l19.617685-19.644632a82.324211 82.324211 0 0 0-56.158316-24.037052 23.120842 23.120842 0 0 1-20.318316-12.314948 249.721263 249.721263 0 0 1-12.773053-30.827789c-2.775579-8.192-0.107789-17.084632 5.820632-23.390316a82.863158 82.863158 0 0 0 22.393263-56.751158 82.189474 82.189474 0 0 0-22.528-56.508631c-5.874526-6.278737-8.569263-15.090526-5.820631-23.282527 3.530105-10.482526 7.814737-20.749474 12.746105-30.827789a23.228632 23.228632 0 0 1 20.399158-12.39579 82.917053 82.917053 0 0 0 56.239158-24.306526c15.548632-15.575579 23.444211-35.759158 24.037052-56.158316a23.04 23.04 0 0 1 12.314948-20.291368 245.76 245.76 0 0 1 30.827789-12.8c8.192-2.775579 17.084632-0.080842 23.390316 5.820631a82.863158 82.863158 0 0 0 56.751158 22.393264c21.935158 0 41.714526-8.623158 56.508631-22.501053 6.278737-5.901474 15.117474-8.596211 23.255579-5.847579 10.509474 3.530105 20.803368 7.814737 30.854737 12.773053 7.653053 3.772632 12.153263 11.856842 12.422737 20.37221 0.619789 20.426105 8.704 40.636632 24.279579 56.239158l13.096421-13.096421-13.096421 13.096421a82.162526 82.162526 0 0 0 56.158316 24.037053 23.04 23.04 0 0 1 20.291368 12.314947c4.931368 9.970526 9.216 20.237474 12.8 30.82779 2.775579 8.192 0.080842 17.084632-5.820631 23.44421a82.809263 82.809263 0 0 0-22.366316 56.697263c0 21.935158 8.569263 41.714526 22.474105 56.535579 5.928421 6.278737 8.623158 15.090526 5.847579 23.255579a246.191158 246.191158 0 0 1-12.773053 30.82779c-3.772632 7.68-11.829895 12.153263-20.37221 12.422736a82.997895 82.997895 0 0 0-56.239158 24.279579l19.671579 19.671579c8.892632-8.892632 20.048842-13.931789 31.609263-15.521684 5.739789-0.808421 11.533474-0.700632 17.246316 0.296421a23.255579 23.255579 0 0 0 23.794526-11.398737 274.863158 274.863158 0 0 0 26.866526-61.763368c3.799579-12.934737 0-27.486316-10.320842-36.163369a55.619368 55.619368 0 0 1-8.757894-9.216" p-id="6471"></path><path d="M807.477895 537.168842a125.035789 125.035789 0 1 0 0 250.017684 125.035789 125.035789 0 0 0 0-250.017684m0 27.782737a97.333895 97.333895 0 0 1 97.226105 97.226105 97.306947 97.306947 0 0 1-97.226105 97.226105 97.306947 97.306947 0 0 1-97.226106-97.226105 97.333895 97.333895 0 0 1 97.226106-97.226105" p-id="6472"></path></svg>
