<?xml version="1.0" standalone="no"?><!DOCTYPE svg PUBLIC "-//W3C//DTD SVG 1.1//EN" "http://www.w3.org/Graphics/SVG/1.1/DTD/svg11.dtd"><svg t="1611295932933" class="icon" viewBox="0 0 1024 1024" version="1.1" xmlns="http://www.w3.org/2000/svg" p-id="12425" xmlns:xlink="http://www.w3.org/1999/xlink" width="200" height="200"><defs><style type="text/css"></style></defs><path d="M747.9 538c43.5-32.7 74.7-94.4 74.7-157.4 0-100.9-87.1-187.6-178.5-175.9 8.6 10.5 15.2 21.3 20.1 32.3 19.1 35.4 27 78.8 27 125.7 0 73-21.1 131.9-69.9 170.4 92.8 31 178.3 129.5 183.4 211.9v47.8c0 14.4 1.4 29.4-6 41.8h107.5c22.5 0 41.8-15.9 41.8-38.3v-61.5c0-80.4-87.2-172.5-200.1-196.8z m-369 66.7c-7.6 7.6-11.9 17.9-11.9 28.7v40.5c0 14.5 7.8 27.9 20.4 35.1 12.6 7.2 28.1 7.2 40.7 0 12.6-7.2 20.4-20.6 20.4-35.1v-40.5c0-22.4-18.2-40.5-40.7-40.5-10.9-0.1-21.2 4.2-28.9 11.8z m28.8-52.4c112.4 0 203.6-99.8 203.6-222.8 0-123.1-91.2-222.9-203.6-222.9-112.4 0-203.6 99.8-203.6 222.9 0 123 91.2 222.8 203.6 222.8z m118.1 15c2.6 8 4.1 16.5 4.1 25.4v81c0 44.8-36.5 81.1-81.5 81.1H367c-45 0-81.5-36.3-81.5-81.1v-81c0-8.9 1.4-17.4 4.1-25.4C168.1 599.7 81.9 680.5 81.9 775.1v61c0 21.5 8.6 42.1 23.9 57.3 15.3 15.2 36 23.7 57.6 23.7h488.7c21.6 0 42.3-8.5 57.6-23.7 15.3-15.2 23.9-35.8 23.9-57.3v-61c0-94.6-86.2-175.4-207.8-207.8z" p-id="12426"></path></svg>