<?xml version="1.0" standalone="no"?><!DOCTYPE svg PUBLIC "-//W3C//DTD SVG 1.1//EN" "http://www.w3.org/Graphics/SVG/1.1/DTD/svg11.dtd"><svg t="1611295805555" class="icon" viewBox="0 0 1024 1024" version="1.1" xmlns="http://www.w3.org/2000/svg" p-id="10924" xmlns:xlink="http://www.w3.org/1999/xlink" width="200" height="200"><defs><style type="text/css"></style></defs><path d="M1023.386938 797.537895v57.880464l-50.980806 10.349487a150.642531 150.642531 0 0 1-15.332573 36.568187l28.748575 43.08453-40.861308 40.861307-43.08453-28.748574a152.865754 152.865754 0 0 1-36.414861 15.332573l-10.732801 51.134131h-57.880464l-10.349487-50.904143a149.799239 149.799239 0 0 1-36.414861-15.332573l-43.391182 28.748575-40.707981-41.321285 28.748574-43.08453a150.335879 150.335879 0 0 1-15.332573-36.491524l-50.444165-10.042835v-58.03379l50.980805-10.349486a146.119422 146.119422 0 0 1 15.332573-36.491524l-29.285214-43.161194 41.091296-41.014633 43.08453 28.671912a148.342645 148.342645 0 0 1 36.414861-15.332573l10.349487-50.904143h57.957126l10.349487 50.904143a151.025845 151.025845 0 0 1 36.338198 15.332573l43.161194-28.748575 40.861307 41.091296-28.748575 43.084531a150.642531 150.642531 0 0 1 15.332574 36.568187z m-197.100227-39.788027a68.613265 68.613265 0 1 0 68.996578 68.996579 68.613265 68.613265 0 0 0-68.996578-68.996579z m-27.905283-279.359482a29.361877 29.361877 0 0 1-14.795933 8.432916c-2.453212 9.429532-4.983086 17.862448-7.666287 25.375408a147.116039 147.116039 0 0 1-8.969555 20.698974 44.081148 44.081148 0 0 1-12.03607 15.332573c-4.983086 4.369783-9.429532 8.126264-13.492665 11.346104a81.032649 81.032649 0 0 0-10.732801 9.812847 52.514063 52.514063 0 0 0-7.666286 11.729418 66.313379 66.313379 0 0 0-5.136412 16.175865 135.846598 135.846598 0 0 0-1.379932 24.915431 36.798175 36.798175 0 0 0 0.843292 5.826378 226.232116 226.232116 0 0 0-90.232193 306.651462c2.913189 5.366401 6.056366 10.656138 9.429533 15.715887h-20.622311q-22.99886 0-53.664006-1.916571t-62.556898-4.676435c-21.542265-1.839909-42.931205-3.909806-64.013493-6.056367s-40.477993-4.753098-57.957126-7.666286-32.428392-5.289738-44.311137-7.896275a68.306613 68.306613 0 0 1-22.998859-7.666287 76.662865 76.662865 0 0 1-12.03607-39.558038 309.947965 309.947965 0 0 1 2.989852-84.329152 68.22995 68.22995 0 0 1 23.612162-45.154428 161.375332 161.375332 0 0 1 45.001102-24.455454q25.988711-9.429532 53.664006-16.482516a160.992017 160.992017 0 0 0 48.450931-21.158951 150.259216 150.259216 0 0 0 25.375409-21.848917 68.996579 68.996579 0 0 0 13.032687-18.782402 48.68092 48.68092 0 0 0 4.139794-19.549031c0-6.899658 0-14.71927-0.919954-23.535499a45.997719 45.997719 0 0 0-12.956024-29.591866c-7.666287-7.206309-15.332573-14.259293-24.148803-21.235614a50.214177 50.214177 0 0 1-11.576093-16.099202 188.437323 188.437323 0 0 1-8.816229-20.698974c-2.529875-7.666287-4.983086-16.022539-7.666287-25.452071a45.154428 45.154428 0 0 1-11.116115-5.366401 52.97404 52.97404 0 0 1-9.506195-11.346104 87.472329 87.472329 0 0 1-9.736184-20.62231 60.333675 60.333675 0 0 1-3.909806-24.915432 53.664006 53.664006 0 0 1 4.599771-19.242379 60.487001 60.487001 0 0 1 10.732802-16.942493 406.773164 406.773164 0 0 1 2.836526-61.330293 430.615315 430.615315 0 0 1 11.576092-55.043937 177.704522 177.704522 0 0 1 24.915432-53.664006 146.579399 146.579399 0 0 1 33.425009-36.721512 169.731584 169.731584 0 0 1 38.331433-22.078906 166.741732 166.741732 0 0 1 38.944735-10.732801 261.190383 261.190383 0 0 1 37.104827-2.836526 176.324591 176.324591 0 0 1 84.329152 19.625694 158.155491 158.155491 0 0 1 83.945838 99.815051 469.79004 469.79004 0 0 1 14.412619 59.030406 366.52516 366.52516 0 0 1 3.603154 64.166818 35.03493 35.03493 0 0 1 8.356253 10.349487 76.662865 76.662865 0 0 1 5.136412 14.565945 56.347206 56.347206 0 0 1 0.459977 22.078905 74.286317 74.286317 0 0 1-7.666287 27.368643 66.773356 66.773356 0 0 1-11.116115 15.79255zM409.930688 195.121099a194.263701 194.263701 0 0 0-27.82862 58.417103 543.463053 543.463053 0 0 0-13.799316 59.183732 474.08316 474.08316 0 0 0-4.599772 65.930065 56.960509 56.960509 0 0 0-11.116115 18.782402 74.36298 74.36298 0 0 0-0.919955 49.907525 91.995439 91.995439 0 0 0 10.119499 24.455454 94.371987 94.371987 0 0 0 9.812846 13.416002 30.051843 30.051843 0 0 0 11.192779 7.666286c2.453212 10.042835 4.983086 19.472368 7.666286 28.211935 2.453212 7.666287 5.443063 15.332573 8.81623 22.998859a42.241239 42.241239 0 0 0 12.496047 17.402471 101.578297 101.578297 0 0 1 10.196161 9.276206 53.664006 53.664006 0 0 1 6.056366 7.052984 18.399088 18.399088 0 0 1 2.759864 8.969555c0.53664 5.059749 1.303269 10.042835 2.299886 15.332573a59.490384 59.490384 0 0 1-4.599772 16.099202 35.494907 35.494907 0 0 1-12.956025 12.266059 249.537627 249.537627 0 0 1-51.977422 24.455454q-27.751957 9.429532-53.664006 20.698973a151.102508 151.102508 0 0 0-44.541125 29.591866 86.399049 86.399049 0 0 0-23.612163 52.207412 150.029228 150.029228 0 0 0-2.299886 20.238996c-0.383314 6.593006-0.843292 12.726036-1.456594 18.322425a27.751957 27.751957 0 0 1-1.839909 3.296503c-0.613303 1.07328-1.226606 2.14656-1.763246 3.296504q-35.954884-3.066515-72.983048-6.822995c-24.60878-2.529875-47.377651-5.366401-68.306613-8.739567s-38.331433-6.209692-52.360737-9.35287a75.052945 75.052945 0 0 1-26.985329-9.429532 68.996579 68.996579 0 0 1-12.342721-39.86469A337.316608 337.316608 0 0 1 4.690781 642.75557a68.996579 68.996579 0 0 1 23.612163-44.694451 142.822918 142.822918 0 0 1 45.001102-24.455454q25.912049-8.969555 53.664006-16.482516a188.667312 188.667312 0 0 0 48.527594-20.698973 153.325731 153.325731 0 0 0 25.068757-20.545648 58.647092 58.647092 0 0 0 12.496047-19.319042 56.577195 56.577195 0 0 0 3.679817-20.162334c0-6.899658 0-14.412619-0.919954-22.615545a47.070999 47.070999 0 0 0-12.496047-29.898518c-7.129646-7.206309-15.332573-14.565944-23.612163-22.155568a36.10821 36.10821 0 0 1-12.496047-15.332573 213.582743 213.582743 0 0 1-8.586241-20.238997c-2.453212-7.666287-4.906423-16.022539-7.666286-25.452071a43.774496 43.774496 0 0 1-11.116116-5.3664 52.590726 52.590726 0 0 1-9.199544-11.116116 90.232193 90.232193 0 0 1-9.736184-21.235614 59.797035 59.797035 0 0 1-3.986469-24.762105 63.246864 63.246864 0 0 1 4.599772-20.238997 45.997719 45.997719 0 0 1 10.196161-16.942493 408.306421 408.306421 0 0 1 2.913189-61.330292 430.845304 430.845304 0 0 1 12.03607-54.583961 172.56811 172.56811 0 0 1 25.068757-52.667388 144.969479 144.969479 0 0 1 33.42501-36.64485 172.184796 172.184796 0 0 1 37.641467-22.155568 157.082211 157.082211 0 0 1 38.331432-10.732801 259.810451 259.810451 0 0 1 37.794793-2.913189 174.638008 174.638008 0 0 1 83.562523 20.085671 182.150968 182.150968 0 0 1 55.657241 42.317901 82.182592 82.182592 0 0 1 15.332573 29.668529c2.14656 9.046218 5.136412 19.549031 8.892892 31.508438a185.754123 185.754123 0 0 0-37.71813 30.665146 346.822803 346.822803 0 0 0-34.728278 40.861308z" p-id="10925"></path></svg>