<svg t="1629003060875" class="icon" viewBox="0 0 1119 1024" version="1.1" xmlns="http://www.w3.org/2000/svg" p-id="4190" width="200" height="200"><path d="M1033.717094 0H81.931185A83.888585 83.888585 0 0 0 0 82.140907V328.563626a83.888585 83.888585 0 0 0 81.931185 82.210814h948.640088a83.888585 83.888585 0 0 0 81.931185-82.140906V82.140907A78.85527 78.85527 0 0 0 1033.717094 0z m37.819771 328.563626a36.421628 36.421628 0 0 1-37.819771 37.889678H81.931185A38.379028 38.379028 0 0 1 44.111415 328.563626V82.140907a38.379028 38.379028 0 0 1 37.81977-37.889678h951.785909a36.421628 36.421628 0 0 1 37.819771 37.889678V328.563626z" p-id="4191"></path><path d="M350.025123 180.360459H176.725287a22.160568 22.160568 0 0 0 0 44.251229h173.299836a21.601311 21.601311 0 0 0 22.020754-22.090661 23.698525 23.698525 0 0 0-22.020754-22.090661z m683.691971 331.779355H81.931185A83.888585 83.888585 0 0 0 0 594.280721v246.492627a83.888585 83.888585 0 0 0 81.931185 82.140907h608.192245a22.160568 22.160568 0 0 0 0-44.251229h-608.192245a38.379028 38.379028 0 0 1-37.81977-37.889678V594.350628a38.379028 38.379028 0 0 1 37.81977-37.889678h951.785909a36.421628 36.421628 0 0 1 37.819771 37.889678v129.537957a22.090661 22.090661 0 1 0 44.111415 0V594.350628a83.888585 83.888585 0 0 0-81.931186-82.140907z" p-id="4192"></path><path d="M177.14473 695.366466a22.160568 22.160568 0 0 0 0 44.251229h173.229929a22.160568 22.160568 0 0 0 0-44.251229z m938.50355 139.045331V824.904424l-3.145822-3.145822-3.145822-3.145822-3.145822-3.145822-207.833971-101.085746h-15.72911a3.075915 3.075915 0 0 0-3.145821 3.145822l-3.145822 3.145822-3.145822 3.145822v6.291644l-44.111415 243.276898v12.653195c0 3.145822 0 3.145822 3.145822 6.291644s3.145822 3.145822 6.291644 3.145822h18.874932a3.075915 3.075915 0 0 0 3.145822-3.145822l53.54888-41.105407 37.819771 62.916439c0 3.145822 3.145822 3.145822 6.291644 3.145822l3.145822 3.145822a15.72911 15.72911 0 0 0 18.874931 0l100.806117-56.904424a3.075915 3.075915 0 0 1 3.145822-3.145822l3.145822-3.145822a3.075915 3.075915 0 0 1 3.145822-3.145822v-15.799016l-40.965593-56.904424 56.694703-22.090661h3.145822a3.075915 3.075915 0 0 0 3.145822-3.145822l6.291644-6.291644v-6.291644l-3.145822-9.507373z m-113.389405 12.653195l-3.145822 3.145822-3.145822 3.145822-3.145822 3.145822v15.799017a3.075915 3.075915 0 0 0 3.145822 3.145822l40.965593 60.050245-59.840525 34.953578-40.965592-62.916439a3.075915 3.075915 0 0 1-3.145822-3.145822l-3.145822-3.145822a3.075915 3.075915 0 0 1-3.145822-3.145822h-15.72911l-37.819771 25.30639 28.312398-157.99017 135.410158 66.34189-34.953577 15.799017z m-31.528127-132.823594l25.166576-18.944839a22.510104 22.510104 0 0 0-28.312398-34.953577l-25.166575 18.944839a23.978154 23.978154 0 0 0-3.145822 31.598034 17.336974 17.336974 0 0 0 15.729109 9.507373 18.455489 18.455489 0 0 0 15.799017-6.081923z m-78.715456-15.799017a21.531404 21.531404 0 0 0 22.020754-22.090661v-34.953577a22.090661 22.090661 0 1 0-44.111415 0v34.953577a23.698525 23.698525 0 0 0 22.090661 22.160568z m-56.694702 22.090661a23.978154 23.978154 0 0 0 15.72911-6.291644 20.972146 20.972146 0 0 0 0-31.598034l-28.312398-28.452212a22.370289 22.370289 0 0 0-31.528127 31.598034l28.312398 28.452212a23.978154 23.978154 0 0 0 15.519388 6.431458z m6.291644 41.105407a21.531404 21.531404 0 0 0-22.020754-22.090661h-50.403058a22.160568 22.160568 0 0 0 0 44.251229h50.403058a21.531404 21.531404 0 0 0 22.090661-22.090661z" p-id="4193"></path></svg>
