<svg t="1629002911937" class="icon" viewBox="0 0 1024 1024" version="1.1" xmlns="http://www.w3.org/2000/svg" p-id="1207" width="200" height="200"><path d="M618.6 832.8H520V719.3h24.8c-8.6-19.8-15.2-38.5-19.9-57.3H154.4c-17.4 0-33.1-2.2-33.1-18.7v-19.8h396.5c-0.4 0-0.8-12.7-0.8-18.3 0-12.3 1.2-19.2 3-38H121.3v-354c0-7.2 6.3-13.8 11.2-18.9 4.9-5.1 14.8-8.1 22-8.1h613.4c7.2 0 18.7 8.2 18.7 27.1v165.2c18.7 3.9 37.5 10.1 57.3 17.9v-183c0-36.3-27.4-84.3-64.5-84.3h-625c-21.1 0-45.6 10.8-61 25.9C77.9 170.2 64 191.7 64 213.4v431c0 42.7 24.9 74.9 90.4 74.9H368v113.5h-61.4c-7.2 0-13.4 3.8-18.5 8.9-5.2 5.1-7.7 11.9-7.7 19.1 0 7.2 2.6 15.1 7.7 20s11.3 9.2 18.5 9.2h312.1c7.2 0 13.4-4 18.5-8.9s7.7-11.7 7.7-18.9c0-7.2-2.6-15-7.7-20.1-5.2-5.2-11.4-9.3-18.6-9.3z m-136.1 0h-57.3V719.3h57.3v113.5z m0 0" p-id="1208"></path><path d="M748.7 681.9c-39.3 0-71.3-32-71.3-71.3s32-71.3 71.3-71.3 71.3 32 71.3 71.3-32 71.3-71.3 71.3z m0-104.5c-18.3 0-33.3 14.9-33.3 33.3 0 18.3 14.9 33.3 33.3 33.3 18.3 0 33.3-14.9 33.3-33.3s-14.9-33.3-33.3-33.3z m0 0" p-id="1209"></path><path d="M748.2 814c-14.9 0-28.9-1.7-39.5-12.1-10.7-10.5-16.7-22.5-16.9-37.5-4.7-1.7-9.4-3.1-13.9-5.3-10.4 10-24.1 16.3-38.6 16.3h-0.5c-14.9 0-28.9-5.3-39.5-15.7-10.8-10.6-16.7-24.4-16.9-39.5-0.1-15 5.5-29 16-39.8-2.1-4.6-4.1-9.2-5.8-13.9-14.5-0.3-28.1-5.9-38.5-16.1-10.7-10.6-16.7-24.7-16.9-39.8-0.1-15.1 5.6-29.3 16.2-40.1 10.5-10.7 24.5-16.7 39.5-16.9 1.8-4.9 3.8-9.7 6-14.4-10-10.5-15.6-24.1-15.7-38.7-0.1-15.1 5.7-29.3 16.3-40 21.8-22.1 57.5-22.4 79.6-0.7 4.3-2 8.7-3.8 13.1-5.4 0.5-30.7 25.6-55.5 56.4-55.5s55.9 24.8 56.4 55.5c4.8 1.7 9.5 3.7 14.1 5.8 21.9-21.1 56.8-21.1 78.7 0.2 10.8 10.5 16.8 24.6 17 39.7 0.2 15-5.5 29.2-15.9 39.9 2.1 4.5 4 9.1 5.7 13.8 30.4 0.5 55.2 25.2 55.5 55.7 0.2 15.1-5.5 29.3-16.1 40.1-10.5 10.7-24.5 16.7-39.4 17-1.8 4.9-3.8 9.7-6 14.4 10 10.4 15.6 24.1 15.8 38.6 0.1 15.1-5.6 29.3-16.2 40.1-21.7 22.1-57.4 22.5-79.6 0.9-4.6 2.2-9.3 0-14.1 1.7-0.6 30.4-25.4 51.3-56 51.3h-0.3z m-75.9-96.9c3.5 0 6.9 0.9 9.9 2.8 11 6.7 22.9 11.7 35.4 14.8 5.2 1.3 9.6 4.7 12.2 9.5 2.5 4.7 3 10.3 1.1 15.4-0.8 2.3-1.2 4.3-1.2 6.3 0 5 2 9.6 5.5 13 3.5 3.4 7.4 5.4 13.1 5.3 10.2-0.1 18.3-8.4 18.3-18.6 0-1.7-0.4-3.6-1.2-5.8-1.8-5.1-1.3-10.7 1.2-15.4 2.6-4.7 7-8.1 12.2-9.4 12.6-3.1 24.6-8 35.7-14.7 4.6-2.8 10.2-3.5 15.3-1.9 5.1 1.6 9.4 5.2 11.7 10.1 1 2.2 2.2 3.9 3.6 5.3 7.3 7.1 18.9 7 26.1-0.2 3.4-3.5 5.3-8.2 5.3-13.1s-2-9.5-5.5-13c-1.2-1.2-2.9-2.3-5-3.4-4.8-2.3-8.5-6.6-10-11.7s-0.8-10.7 2-15.3c6.8-11.1 11.8-23.2 14.9-35.9 1.3-5.2 4.7-9.6 9.4-12.2 4.7-2.6 10.3-3 15.4-1.2 2 0.7 4.2 1.1 6.3 1.2 4.9-0.1 9.5-2 13-5.5 3.4-3.5 5.3-8.2 5.2-13.1-0.1-10.1-9.1-17.7-18.6-18.2-1.8 0.3-3.6 0.4-5.8 1.2-5.1 1.8-10.7 1.4-15.4-1.1-4.7-2.5-8.2-7-9.5-12.2-3.1-12.5-8-24.4-14.7-35.4-2.8-4.6-3.5-10.1-2-15.3 1.5-5.1 5.2-9.4 10-11.7 2.2-1.1 4-2.3 5.3-3.7 3.4-3.5 5.3-8.2 5.3-13.1s-2-9.6-5.5-13c-7.3-7.1-19-7-26.1 0.3-1.2 1.2-2.3 2.9-3.3 5-2.3 4.8-6.6 8.5-11.7 10-5.2 1.6-10.7 0.8-15.3-2-11-6.7-23-11.7-35.6-14.7-5.2-1.3-9.7-4.7-12.2-9.5-2.6-4.7-3-10.3-1.2-15.4 0.8-2.3 1.2-4.2 1.2-6.1 0-10.2-8.3-18.4-18.4-18.4-10.2 0-18.4 8.3-18.4 18.4 0 1.9 0.4 3.8 1.2 6.1 1.8 5.1 1.4 10.7-1.2 15.4-2.6 4.7-7 8.2-12.2 9.5-12.3 3-24 7.8-34.9 14.3-4.6 2.8-10.2 3.4-15.3 1.9-5.1-1.6-9.4-5.2-11.7-10.1-1-2.2-2.2-3.9-3.6-5.3-7.2-7.1-18.9-7.1-26.1 0.2-3.4 3.5-5.4 8.2-5.3 13 0 4.9 2 9.6 5.5 13 1.3 1.2 2.9 2.3 5 3.4 4.8 2.3 8.5 6.6 10 11.8 1.5 5.2 0.8 10.7-2 15.3-6.8 11.1-11.9 23.2-15 35.8-1.3 5.2-4.7 9.6-9.5 12.2-4.7 2.5-10.3 2.9-15.4 1.1-2.3-0.8-4.2-1.4-6.2-1.2-5 0-9.6 2-13 5.5-3.5 3.5-5.3 8.2-5.3 13.1s2 9.5 5.5 13c3.4 3.4 8.1 5.3 12.9 5.3 1.6 0.2 3.8-0.4 6.1-1.2 5.1-1.7 10.6-1.3 15.3 1.3 4.7 2.6 8.1 7 9.4 12.2 3 12.5 8 24.5 14.6 35.6 2.8 4.6 3.5 10.2 1.9 15.3-1.6 5.1-5.2 9.4-10.1 11.7-2.2 1-3.9 2.2-5.3 3.6-3.4 3.5-5.3 8.2-5.3 13.1s2 9.6 5.5 13c3.5 3.5 8.7 5.9 13.1 5.3 4.9 0 9.5-2 13-5.5 1.2-1.2 2.3-2.9 3.3-5 2.3-4.8 6.6-8.5 11.7-10 1.8-0.8 3.6-1.1 5.4-1.1z m0 0" p-id="1210"></path></svg>
