<svg t="1629355362092" class="icon" viewBox="0 0 1024 1024" version="1.1" xmlns="http://www.w3.org/2000/svg" p-id="34646" width="200" height="200"><path d="M938.98583 598.644154H563.1595V436.535737c0-28.139725-23.019775-51.1595-51.1595-51.1595-28.139725 0-51.1595 23.019775-51.1595 51.1595v162.108417H85.01417c-32.159686 0-58.469429 26.309743-58.469429 58.469429v308.416988c0 32.159686 26.309743 58.469429 58.469429 58.469429h853.96166c32.159686 0 58.469429-26.309743 58.469429-58.469429V657.113583c0-32.159686-26.309743-58.469429-58.459429-58.469429zM197.053076 859.551606c-26.63974 0-48.239529-21.599789-48.239529-48.239529s21.599789-48.239529 48.239529-48.239529 48.239529 21.599789 48.239529 48.239529-21.599789 48.239529-48.239529 48.239529z m139.808634 0c-26.63974 0-48.239529-21.599789-48.239529-48.239529s21.599789-48.239529 48.239529-48.239529 48.239529 21.599789 48.239529 48.239529-21.609789 48.239529-48.239529 48.239529z" p-id="34647" fill="#8ac2fa"></path><path d="M147.333561 466.98544c28.249724 0 51.1595-22.899776 51.159501-51.159501 0-172.868312 140.638627-313.506938 313.506938-313.506938s313.506938 140.638627 313.506938 313.506938c0 28.249724 22.899776 51.1595 51.159501 51.159501 28.249724 0 51.1595-22.899776 51.1595-51.159501 0-111.068915-43.249578-215.497896-121.78881-294.037128C727.497896 43.249578 623.068915 0 512 0S296.502104 43.249578 217.972871 121.788811c-78.549233 78.539233-121.798811 182.968213-121.79881 294.037128 0 28.249724 22.909776 51.1595 51.1595 51.159501z" p-id="34648" fill="#8ac2fa"></path><path d="M512 149.948536c-144.698587 0-262.417437 117.71885-262.417437 262.417437 0 28.249724 22.899776 51.1595 51.1595 51.1595s51.1595-22.899776 51.1595-51.1595c0-88.279138 71.819299-160.098437 160.098437-160.098437s160.098437 71.819299 160.098437 160.098437c0 28.249724 22.899776 51.1595 51.1595 51.1595s51.1595-22.899776 51.1595-51.1595c0-144.698587-117.71885-262.417437-262.417437-262.417437z" p-id="34649" fill="#8ac2fa"></path></svg>
