<svg t="1629354313286" class="icon" viewBox="0 0 1024 1024" version="1.1" xmlns="http://www.w3.org/2000/svg" p-id="9706" width="200" height="200"><path d="M219.815054 536.488179l197.998462 196.196241V85.298262c0-47.103482 38.706774-85.298262 86.424649-85.298262s86.424649 38.19478 86.42465 85.298262v647.365679l197.875583-196.175762a86.957123 86.957123 0 0 1 60.988769-25.231083 86.977603 86.977603 0 0 1 61.214047 24.739568l0.491514 0.491515a84.52003 84.52003 0 0 1 0 121.096908L565.59557 998.798613a87.223361 87.223361 0 0 1-122.69433 0L97.100244 657.585087a84.888666 84.888666 0 0 1-22.445833-82.73829 86.219852 86.219852 0 0 1 61.357405-60.538214 87.551037 87.551037 0 0 1 83.803238 22.179596z" p-id="9707" fill="#de6d41"></path></svg>
