<svg t="1629352630842" class="icon" viewBox="0 0 1024 1024" version="1.1" xmlns="http://www.w3.org/2000/svg" p-id="5549" width="200" height="200"><path d="M810.963018 767.88704h-128.120968a42.706989 42.706989 0 0 1 0-85.413978h128.120968a128.120968 128.120968 0 0 0 29.040752-252.398306 42.706989 42.706989 0 0 1-32.457312-48.258898 256.241935 256.241935 0 0 0-498.390563-113.600591 42.706989 42.706989 0 0 1-39.29043 30.321962 192.181451 192.181451 0 0 0 7.260188 384.362903h64.060484a42.706989 42.706989 0 0 1 0 85.413978h-64.060484a277.59543 277.59543 0 0 1-40.14457-552.20137 341.655913 341.655913 0 0 1 659.395913 124.704408v17.936936a213.534946 213.534946 0 0 1-85.413978 409.132956z m-279.73078 251.544166l170.827957-85.413978a42.706989 42.706989 0 0 0-38.00922-76.445511l-108.902823 54.664946v-357.884569a42.706989 42.706989 0 0 0-85.413978 0v427.069892a42.706989 42.706989 0 0 0 61.925134 38.00922z m-113.173521-65.768763a42.706989 42.706989 0 0 0-8.541398-59.789785l-42.706989-32.030242a42.706989 42.706989 0 1 0-51.248387 68.331183l42.706989 32.030242a42.706989 42.706989 0 0 0 59.789785-8.541398z m-46.550618-27.332473a62.181376 62.181376 0 0 0 9.395538-14.093307 42.706989 42.706989 0 0 0 2.989489-16.228655 35.916578 35.916578 0 0 0-3.416559-16.228656 49.967177 49.967177 0 0 0-8.968468-14.093307 42.706989 42.706989 0 0 0-46.550618-8.968467 39.7175 39.7175 0 0 0-14.093307 8.968467 49.326573 49.326573 0 0 0-8.968467 14.093307 40.614347 40.614347 0 0 0 0 32.457311 49.113038 49.113038 0 0 0 8.968467 14.093307 48.08807 48.08807 0 0 0 14.093307 8.968468 42.706989 42.706989 0 0 0 46.550618-8.968468z" fill="#3E2AD1" p-id="5550"></path></svg>
