<?xml version="1.0" standalone="no"?><!DOCTYPE svg PUBLIC "-//W3C//DTD SVG 1.1//EN" "http://www.w3.org/Graphics/SVG/1.1/DTD/svg11.dtd"><svg t="1611295702301" class="icon" viewBox="0 0 1024 1024" version="1.1" xmlns="http://www.w3.org/2000/svg" p-id="8730" xmlns:xlink="http://www.w3.org/1999/xlink" width="200" height="200"><defs><style type="text/css"></style></defs><path d="M184.9 95.1c19.3 0 35.6 6.5 49.1 19.6 13.4 13.1 20.1 29.3 20.1 48.6V216c0 19.3-6.7 35.6-20.1 49.1-13.4 13.4-29.8 20.2-49.1 20.2h-54.7c-18.6 0-34.6-6.7-48-20.2C68.7 251.6 62 235.3 62 216v-52.7c0-19.3 6.7-35.5 20.2-48.6 13.4-13.1 29.5-19.6 48-19.6h54.7m708.9 0c18.6 0 34.6 6.5 48.1 19.6 13.4 13.1 20.1 29.3 20.1 48.6V216c0 19.3-6.7 35.6-20.1 49.1-13.4 13.4-29.5 20.2-48.1 20.2H452.6c-19.3 0-35.6-6.7-49.1-20.2-13.4-13.4-20.1-29.8-20.1-49.1v-52.7c0-19.3 6.7-35.5 20.2-48.6 13.4-13.1 29.8-19.6 49.1-19.6h441.1M184.9 416.5c19.3 0 35.6 6.7 49.1 20.2 13.4 13.4 20.1 29.8 20.1 49.1v52.7c0 18.6-6.7 34.6-20.1 48.1-13.4 13.4-29.8 20.1-49.1 20.1h-54.7c-18.6 0-34.6-6.7-48-20.1C68.8 573 62 556.9 62 538.4v-52.7c0-19.3 6.7-35.6 20.2-49.1 13.4-13.4 29.5-20.2 48-20.2h54.7v0.1m708.9 0c18.6 0 34.6 6.7 48.1 20.2 13.4 13.4 20.1 29.8 20.1 49.1v52.7c0 18.6-6.7 34.6-20.1 48.1-13.4 13.5-29.5 20.1-48.1 20.1H452.6c-19.3 0-35.6-6.7-49.1-20.1-13.4-13.4-20.2-29.5-20.2-48.1v-52.7c0-19.3 6.7-35.6 20.2-49.1 13.4-13.4 29.8-20.2 49.1-20.2h441.2M184.9 738.8c19.3 0 35.6 6.7 49.1 20.1 13.4 13.4 20.1 29.5 20.1 48v52.7c0 19.4-6.7 35.7-20.1 49.1-13.4 13.4-29.8 20.1-49.1 20.1h-54.7c-18.6 0-34.6-6.7-48-20.1C68.8 895.4 62 879 62 859.7V807c0-18.6 6.7-34.6 20.2-48 13.4-13.4 29.5-20.1 48-20.1h54.7v-0.1m708.9 0c18.6 0 34.6 6.7 48.1 20.1 13.4 13.4 20.1 29.5 20.1 48v52.7c0 19.4-6.7 35.7-20.1 49.1-13.4 13.4-29.5 20.1-48.1 20.1H452.6c-19.3 0-35.6-6.7-49.1-20.1-13.4-13.4-20.2-29.8-20.2-49.1V807c0-18.6 6.7-34.6 20.2-48 13.4-13.4 29.8-20.1 49.1-20.1h441.2v-0.1m0 0" fill="" p-id="8731"></path></svg>