<?xml version="1.0" standalone="no"?><!DOCTYPE svg PUBLIC "-//W3C//DTD SVG 1.1//EN" "http://www.w3.org/Graphics/SVG/1.1/DTD/svg11.dtd"><svg t="1611281577556" class="icon" viewBox="0 0 1024 1024" version="1.1" xmlns="http://www.w3.org/2000/svg" p-id="4264" xmlns:xlink="http://www.w3.org/1999/xlink" width="200" height="200"><defs><style type="text/css"></style></defs><path d="M817.152 598.528c0-18.944-6.656-34.816-19.456-49.152L411.648 163.84c-13.312-13.312-32.256-25.088-54.784-34.816-23.552-9.728-44.032-14.336-62.976-14.336H69.12c-18.944 0-34.816 7.168-48.64 20.48s-20.48 29.696-20.48 48.64v223.744c0 18.944 4.608 40.448 14.336 62.976 9.728 23.552 20.48 41.472 34.816 54.784L435.2 911.36c13.312 13.312 29.696 19.456 48.64 19.456s34.816-6.656 49.152-19.456l264.704-264.704c12.288-13.312 19.456-29.184 19.456-48.128zM221.184 336.384c-13.312 13.312-29.696 19.968-48.64 19.968s-34.816-6.656-48.64-19.968c-13.312-13.312-19.968-29.696-19.968-48.64s6.656-34.816 19.968-48.64c13.312-13.312 29.696-19.968 48.64-19.968s34.816 6.656 48.64 19.968c13.312 13.312 19.456 29.696 19.456 48.64 1.024 19.456-6.144 35.328-19.456 48.64z m783.36 212.48L618.496 163.84c-13.312-13.312-32.256-25.088-54.784-34.816-23.552-9.728-44.032-14.336-62.976-14.336H379.392c18.944 0 40.448 4.608 62.976 14.336 23.552 9.728 41.472 20.48 54.784 34.816l385.536 384.512c13.312 14.336 19.968 30.72 19.968 49.152 0 18.944-6.656 34.816-19.968 48.64L629.76 899.584c10.752 10.752 20.48 18.944 28.672 24.064 7.68 5.12 18.944 7.168 31.744 7.168 18.944 0 34.816-6.656 49.152-19.968l264.704-265.216c13.312-13.312 19.456-29.696 19.456-48.64 0.512-18.432-6.144-33.792-18.944-48.128z" p-id="4265"></path></svg>