<?xml version="1.0" standalone="no"?><!DOCTYPE svg PUBLIC "-//W3C//DTD SVG 1.1//EN" "http://www.w3.org/Graphics/SVG/1.1/DTD/svg11.dtd"><svg t="1611295589986" class="icon" viewBox="0 0 1160 1024" version="1.1" xmlns="http://www.w3.org/2000/svg" p-id="7308" xmlns:xlink="http://www.w3.org/1999/xlink" width="226.5625" height="200"><defs><style type="text/css"></style></defs><path d="M610.986667 771.413333c0-160.426667 133.12-290.133333 293.546666-290.133333 30.72 0 58.026667 3.413333 85.333334 13.653333V102.4c0-54.613333-44.373333-102.4-102.4-102.4H102.4C44.373333 0 0 44.373333 0 102.4v785.066667c0 54.613333 44.373333 102.4 102.4 102.4h604.16v-3.413334c-58.026667-51.2-95.573333-129.706667-95.573333-215.04zM194.56 283.306667l-3.413333-3.413334c-13.653333-6.826667-23.893333-23.893333-23.893334-37.546666 0-27.306667 20.48-47.786667 47.786667-47.786667 27.306667 0 47.786667 20.48 47.786667 47.786667 0 13.653333-6.826667 27.306667-17.066667 37.546666h-3.413333v3.413334c20.48 126.293333 126.293333 215.04 252.586666 215.04s232.106667-92.16 252.586667-215.04v-3.413334l-3.413333-3.413333c-10.24-10.24-17.066667-23.893333-17.066667-37.546667 0-27.306667 20.48-47.786667 47.786667-47.786666 27.306667 0 47.786667 20.48 47.786666 47.786666 0 17.066667-10.24 30.72-23.893333 40.96h-3.413333v3.413334c-20.48 150.186667-150.186667 262.826667-300.373334 262.826666s-279.893333-112.64-300.373333-262.826666zM921.6 546.133333c-133.12 0-238.933333 105.813333-238.933333 238.933334s105.813333 238.933333 238.933333 238.933333 238.933333-105.813333 238.933333-238.933333-105.813333-238.933333-238.933333-238.933334z m112.64 256c3.413333 3.413333 6.826667 10.24 13.653333 10.24 0 0 3.413333 0 3.413334 3.413334 3.413333 3.413333 3.413333 3.413333 3.413333 6.826666v6.826667c0 3.413333 0 6.826667-3.413333 10.24 0 3.413333-3.413333 6.826667-3.413334 10.24l-6.826666 6.826667c-3.413333 0-3.413333 3.413333-6.826667 3.413333h-23.893333c-3.413333 0-6.826667 0-10.24 3.413333-3.413333 0-6.826667 3.413333-6.826667 3.413334-3.413333 3.413333-6.826667 10.24-6.826667 17.066666s0 13.653333 3.413334 17.066667c3.413333 3.413333 0 6.826667 0 10.24 0 0-3.413333 3.413333-6.826667 3.413333s-6.826667 3.413333-6.826667 3.413334c-3.413333 0-6.826667 3.413333-10.24 3.413333H955.733333c-3.413333 0-3.413333 0-3.413333-3.413333l-3.413333-3.413334c-3.413333-6.826667-6.826667-10.24-10.24-17.066666-6.826667-3.413333-10.24-6.826667-17.066667-6.826667s-13.653333 3.413333-17.066667 6.826667c-6.826667 3.413333-10.24 10.24-10.24 17.066666 0 3.413333-3.413333 3.413333-3.413333 6.826667h-17.066667c-3.413333 0-6.826667-3.413333-10.24-3.413333-3.413333 0-6.826667-3.413333-10.24-6.826667l-6.826666-6.826667v-3.413333c0-3.413333 0-3.413333 3.413333-6.826667s3.413333-10.24 3.413333-17.066666-3.413333-10.24-6.826666-17.066667c-3.413333-3.413333-6.826667-3.413333-10.24-6.826667h-10.24c-3.413333 0-6.826667 0-13.653334 3.413334h-6.826666c-3.413333 0-3.413333-3.413333-6.826667-6.826667s-3.413333-6.826667-3.413333-10.24c0-3.413333-3.413333-6.826667-3.413334-10.24V819.2c0-3.413333 3.413333-6.826667 6.826667-6.826667 6.826667-3.413333 10.24-6.826667 17.066667-10.24 3.413333-6.826667 6.826667-10.24 6.826666-17.066666s-3.413333-13.653333-6.826666-17.066667c-3.413333-3.413333-10.24-10.24-17.066667-10.24-3.413333 0-3.413333-3.413333-3.413333-3.413333 0-3.413333-3.413333-3.413333-3.413334-6.826667v-6.826667c0-3.413333 3.413333-6.826667 3.413334-10.24 0-3.413333 3.413333-6.826667 3.413333-6.826666 0-3.413333 3.413333-3.413333 6.826667-6.826667H826.026667c6.826667 0 13.653333-3.413333 17.066666-6.826667 3.413333-3.413333 3.413333-6.826667 6.826667-10.24 0-3.413333 3.413333-6.826667 3.413333-10.24v-10.24-6.826666-3.413334-3.413333c0-3.413333 3.413333-3.413333 6.826667-6.826667s6.826667-3.413333 10.24-3.413333c3.413333 0 6.826667-3.413333 10.24-3.413333h6.826667c3.413333 0 3.413333 0 6.826666 3.413333 0 0 3.413333 3.413333 3.413334 6.826667 3.413333 6.826667 6.826667 10.24 10.24 13.653333 3.413333 3.413333 10.24 6.826667 17.066666 6.826667s13.653333-3.413333 17.066667-6.826667c6.826667-3.413333 10.24-10.24 10.24-13.653333l3.413333-3.413334 3.413334-3.413333h10.24c3.413333 0 6.826667 3.413333 10.24 3.413333 3.413333 0 6.826667 3.413333 10.24 6.826667l6.826666 6.826667v6.826666c-6.826667 0-6.826667 6.826667-6.826666 13.653334s3.413333 10.24 6.826666 17.066666c3.413333 3.413333 10.24 6.826667 17.066667 6.826667s13.653333 0 20.48-3.413333h6.826667c3.413333 0 3.413333 0 6.826666 3.413333s6.826667 6.826667 6.826667 13.653333c3.413333 6.826667 3.413333 10.24 3.413333 17.066667v6.826667c0 3.413333-3.413333 3.413333-3.413333 3.413333-6.826667 3.413333-10.24 6.826667-17.066667 10.24-3.413333 6.826667-6.826667 10.24-6.826666 17.066667s0 13.653333 3.413333 17.066666z m-68.266667-61.44c-6.826667-6.826667-13.653333-10.24-20.48-13.653333-6.826667-3.413333-17.066667-3.413333-23.893333-3.413333-10.24 0-17.066667 0-23.893333 3.413333-6.826667 3.413333-13.653333 6.826667-20.48 13.653333-6.826667 6.826667-10.24 13.653333-13.653334 20.48-3.413333 6.826667-3.413333 17.066667-3.413333 23.893334 0 10.24 0 17.066667 3.413333 23.893333 3.413333 6.826667 6.826667 13.653333 13.653334 20.48 6.826667 6.826667 13.653333 10.24 20.48 13.653333 6.826667 3.413333 17.066667 3.413333 23.893333 3.413334 10.24 0 17.066667 0 23.893333-3.413334 6.826667-3.413333 13.653333-6.826667 20.48-13.653333 6.826667-6.826667 10.24-13.653333 13.653334-20.48 3.413333-6.826667 3.413333-17.066667 3.413333-23.893333 0-10.24 0-17.066667-3.413333-23.893334-3.413333-10.24-6.826667-17.066667-13.653334-20.48z" p-id="7309"></path></svg>