<svg t="1629189061888" class="icon" viewBox="0 0 1024 1024" version="1.1" xmlns="http://www.w3.org/2000/svg" p-id="1192" width="200" height="200"><path d="M967.68 855.04l-122.88-171.52V435.2c0-148.48-97.28-273.92-232.96-317.44C614.4 112.64 614.4 107.52 614.4 102.4c0-56.32-46.08-102.4-102.4-102.4s-102.4 46.08-102.4 102.4c0 5.12 0 10.24 2.56 15.36C276.48 161.28 179.2 286.72 179.2 435.2v248.32L56.32 855.04c-5.12 7.68-5.12 17.92-2.56 25.6 5.12 10.24 12.8 15.36 23.04 15.36h284.16C373.76 967.68 435.2 1024 512 1024s138.24-56.32 151.04-128h284.16c10.24 0 17.92-5.12 23.04-12.8 5.12-10.24 2.56-20.48-2.56-28.16zM460.8 102.4c0-28.16 23.04-51.2 51.2-51.2s51.2 23.04 51.2 51.2v5.12C545.28 104.96 529.92 102.4 512 102.4s-33.28 2.56-51.2 5.12V102.4zM512 972.8c-48.64 0-87.04-33.28-99.84-76.8h197.12A99.191467 99.191467 0 0 1 512 972.8zM125.44 844.8L225.28 706.56c2.56-5.12 5.12-10.24 5.12-15.36v-256A280.7808 280.7808 0 0 1 512 153.6a280.7808 280.7808 0 0 1 281.6 281.6v256c0 5.12 2.56 10.24 5.12 15.36l99.84 138.24H125.44z" p-id="1193"></path></svg>
