<svg t="1629355292931" class="icon" viewBox="0 0 1025 1024" version="1.1" xmlns="http://www.w3.org/2000/svg" p-id="32326" width="200" height="200"><path d="M641.536 573.44h-54.784a27.533 27.533 0 0 1-27.648-27.648v-145.92c0-30.208 24.576-54.784 54.784-54.784s54.784 24.576 54.784 54.784v145.92c0.512 14.848-11.776 27.648-27.136 27.648z m-39.424-43.008h24.576v-130.56c0-6.656-5.632-12.288-12.288-12.288-6.656 0-12.288 5.632-12.288 12.288v130.56z" fill="#474747" p-id="32327"></path><path d="M818.688 606.72h-4.096 4.096z m-4.096 0H134.656c-29.696 0-54.272 24.064-54.272 54.272v214.016c0 27.648 22.016 49.664 49.664 49.664H814.08V606.72z" fill="#7BC3FF" p-id="32328"></path><path d="M922.112 571.392c32.768 0 59.904 27.136 59.904 59.904v268.8c0 32.768-27.136 59.904-59.904 59.904h-819.2c-32.768 0-59.904-27.136-59.904-59.904v-268.8c0-32.768 27.136-59.904 59.904-59.904h819.2m0-43.008h-819.2C46.08 528.384 0 574.464 0 631.296v268.8c0 56.832 46.08 102.912 102.912 102.912h819.712c56.832 0 102.912-46.08 102.912-102.912v-268.8c-0.512-56.832-46.592-102.912-103.424-102.912z" fill="#474747" p-id="32329"></path><path d="M163.84 765.44a38.912 38.912 0 1 0 77.824 0 38.912 38.912 0 1 0-77.824 0z" fill="#FFFFFF" p-id="32330"></path><path d="M202.752 817.664c-28.672 0-51.712-23.04-51.712-51.712s23.04-51.712 51.712-51.712 51.712 23.04 51.712 51.712c0 28.16-23.552 51.712-51.712 51.712z m0-78.336c-14.336 0-26.112 11.776-26.112 26.112s11.776 26.112 26.112 26.112 26.112-11.776 26.112-26.112-11.776-26.112-26.112-26.112z" fill="#FF847B" p-id="32331"></path><path d="M287.744 765.44a38.912 38.912 0 1 0 77.824 0 38.912 38.912 0 1 0-77.824 0z" fill="#FFFFFF" p-id="32332"></path><path d="M326.656 817.664c-28.672 0-51.712-23.04-51.712-51.712s23.04-51.712 51.712-51.712 52.224 23.04 52.224 51.2c0 28.672-23.552 52.224-52.224 52.224z m0-78.336c-14.336 0-26.112 11.776-26.112 26.112s11.776 26.112 26.112 26.112 26.112-11.776 26.112-26.112c0.512-14.336-11.264-26.112-26.112-26.112z" fill="#FF847B" p-id="32333"></path><path d="M614.4 64c154.624 0 290.304 125.44 290.304 280.064v3.584c0 14.336-11.776 25.6-25.6 25.6s-25.088-11.264-25.6-25.088v-4.608c0-126.464-112.64-228.864-238.592-228.864-126.464 0-237.056 102.4-237.056 228.864v0.512c0 0.512-0.512 4.096-0.512 4.096-1.536 12.8-11.776 23.04-25.088 23.04-13.312 0-24.576-10.24-26.112-23.04v-4.096C325.632 189.44 459.776 64 614.4 64m0-43.008c-179.712 0-331.264 147.968-331.264 322.56v7.168l0.512 2.56c4.096 34.304 33.792 60.416 68.096 60.416 33.792 0 62.976-26.112 67.072-60.416 0.512-4.096 1.024-7.168 1.024-11.776 1.024-100.352 89.6-184.832 194.56-184.832 106.496 0 196.096 84.992 196.096 186.368v6.144c1.024 37.376 31.232 66.56 68.096 66.56 37.888 0 68.608-30.72 68.608-68.608v-3.584c0-174.592-152.576-322.56-332.8-322.56z" fill="#474747" p-id="32334"></path><path d="M614.4 233.472c73.216 0 132.096 59.392 132.096 132.096v1.536c0 6.656-5.632 12.288-12.288 12.288-6.656 0-11.776-5.12-11.776-11.776v-2.048c0-59.904-48.128-108.032-108.032-108.032s-108.032 48.128-108.032 108.032c0 0.512-0.512 2.048-0.512 2.048-0.512 6.144-5.12 11.264-11.264 11.264-6.144 0-11.264-4.608-12.288-10.752v-2.048c0-73.216 58.88-132.608 132.096-132.608m0-42.496c-96.256 0-175.104 78.336-175.104 175.104v2.56l0.512 4.608c3.584 27.648 27.136 48.128 54.784 48.128 27.136 0 50.688-20.992 54.272-48.128l0.512-4.096v-3.584c0-35.84 29.184-65.536 65.536-65.536 35.84 0 65.536 29.184 65.536 65.536v3.584c1.024 29.696 25.088 53.248 54.784 53.248 30.208 0 54.784-24.576 54.784-54.784-0.512-98.304-79.36-176.64-175.616-176.64z" fill="#474747" p-id="32335"></path></svg>
