<?xml version="1.0" standalone="no"?><!DOCTYPE svg PUBLIC "-//W3C//DTD SVG 1.1//EN" "http://www.w3.org/Graphics/SVG/1.1/DTD/svg11.dtd"><svg t="1611296013888" class="icon" viewBox="0 0 1024 1024" version="1.1" xmlns="http://www.w3.org/2000/svg" p-id="13992" xmlns:xlink="http://www.w3.org/1999/xlink" width="200" height="200"><defs><style type="text/css"></style></defs><path d="M824.438918 894.482181H299.670104v-54.199413h419.84923c28.913517 0 52.518121-24.325012 52.518121-54.193273V244.094344h52.40044v650.387837m-553.197284-162.593122c-14.455223 0-26.252921-12.160971-26.252921-27.100218 0-14.926968 11.79872-27.100218 26.252921-27.100218h369.519961c14.443967 0 26.252921 12.173251 26.252921 27.100218 0 14.937201-11.808954 27.100218-26.252921 27.100218H271.240611m0-216.799698h369.519961c14.443967 0 26.252921 12.173251 26.252921 27.100218 0 14.937201-11.808954 27.100218-26.252921 27.100219H271.240611c-14.455223 0-26.252921-12.160971-26.252921-27.100219 0-14.926968 11.79872-27.100218 26.252921-27.100218z m0-162.594145h369.519961c14.443967 0 26.252921 12.173251 26.252921 27.100218 0 14.938224-11.808954 27.100218-26.252921 27.100218H271.240611c-14.455223 0-26.252921-12.160971-26.252921-27.100218 0-14.926968 11.79872-27.100218 26.252921-27.100218z m157.413146-162.594145h212.106815c14.443967 0 26.252921 12.173251 26.252921 27.100218 0 14.932084-11.808954 27.094078-26.252921 27.094078H428.653757c-14.442944 0-26.239618-12.160971-26.239618-27.094078 0-14.926968 11.796674-27.100218 26.239618-27.100218z m395.785161 0H772.037455v-54.199413c0-29.865191-23.604604-54.200436-52.518121-54.200436H194.765869c-29.02915 0-52.519144 24.335245-52.519144 54.200436v650.387837c0 29.869285 23.489994 54.193273 52.519144 54.193273h52.387137v54.199413c0 29.875424 23.606651 54.211692 52.518121 54.211693h524.767791c29.016871 0 52.505841-24.337291 52.505841-54.211693V244.094344c0-29.857005-23.48897-54.193273-52.505841-54.193273z" p-id="13993"></path></svg>