<svg t="1629355130863" class="icon" viewBox="0 0 1024 1024" version="1.1" xmlns="http://www.w3.org/2000/svg" p-id="25944" width="200" height="200"><path d="M606.118957 870.689391c-26.267826-12.466087-41.538783-28.783304-41.538783-44.833391v-59.904c3.383652 2.448696 6.967652 4.741565 10.774261 6.967652a260.541217 260.541217 0 0 0 129.892174 30.408348 263.791304 263.791304 0 0 0 130.003478-30.45287c3.695304-2.181565 7.190261-4.496696 10.618435-6.900869v60.438261c-0.289391 15.916522-15.270957 32.055652-41.516522 44.254608-31.232 13.57913-65.046261 20.301913-99.149913 19.723131a238.636522 238.636522 0 0 1-99.06087-19.70087z m-323.784348-51.021913c-51.912348-24.709565-81.764174-58.546087-81.764174-92.93913v-0.489739a16.339478 16.339478 0 0 0 0-1.78087v-133.008696l24.687304 17.363479c5.676522 4.162783 11.597913 7.991652 17.719652 11.486608a442.167652 442.167652 0 0 0 220.115479 51.467131c26.935652 0.089043 53.871304-1.78087 80.584347-5.520696v182.873044a502.294261 502.294261 0 0 1-80.740174 6.656 435.021913 435.021913 0 0 1-180.602434-36.107131z m323.85113-75.53113c-26.245565-12.466087-41.538783-28.850087-41.538782-44.877913v-0.378435a7.078957 7.078957 0 0 0 0-1.024v-44.521739c3.428174 2.426435 6.967652 4.719304 10.77426 6.989913a260.897391 260.897391 0 0 0 129.869913 30.386087c49.574957 1.78087 98.57113-11.241739 140.621913-37.398261v48.328348c-1.536 15.270957-16.406261 30.430609-41.405217 42.340174-31.232 13.57913-65.046261 20.301913-99.127652 19.767652a239.593739 239.593739 0 0 1-99.172174-19.611826z m0-112.996174c-26.267826-12.466087-41.583304-28.783304-41.583304-44.855652 0-16.094609 15.181913-32.055652 41.583304-44.388174a239.482435 239.482435 0 0 1 99.06087-19.678609c54.049391 0 104.292174 15.293217 128.111304 39.179131 7.346087 6.433391 11.842783 15.449043 12.55513 25.154782 0 16.027826-15.226435 32.278261-41.583304 44.677565-31.209739 13.57913-65.001739 20.301913-99.060869 19.723131a238.569739 238.569739 0 0 1-99.105392-19.812174h0.022261z m-143.204174 2.270609c-62.107826 0.890435-123.725913-11.442087-180.646956-36.107131C230.4 572.772174 200.570435 538.935652 200.570435 504.609391v-0.623304a18.142609 18.142609 0 0 0 0-1.869913V393.794783l24.486956 17.586087c5.787826 4.073739 11.776 7.94713 17.764174 11.464347a435.689739 435.689739 0 0 0 209.474783 51.422609h10.685217c94.697739 0 181.426087-22.973217 237.746087-62.886956l24.82087-17.452522v98.860522c-169.026783-2.31513-181.715478 73.015652-181.715479 73.015652v61.061565a500.825043 500.825043 0 0 1-80.294956 6.455652l-0.556522 0.089044z m-180.758261-233.739131C229.465043 374.739478 200.347826 341.281391 200.347826 306.888348s29.896348-68.207304 81.92-92.605218a439.585391 439.585391 0 0 1 180.691478-36.151652c98.682435 0 191.22087 28.605217 235.876174 73.015652a79.649391 79.649391 0 0 1 26.534957 55.652174v0.578783c-0.222609 34.882783-29.362087 67.673043-81.875478 92.40487a439.54087 439.54087 0 0 1-180.602435 36.062608 435.845565 435.845565 0 0 1-180.669218-36.173913z" fill="#d81e06" p-id="25945"></path></svg>
