<?xml version="1.0" standalone="no"?><!DOCTYPE svg PUBLIC "-//W3C//DTD SVG 1.1//EN" "http://www.w3.org/Graphics/SVG/1.1/DTD/svg11.dtd"><svg t="1611296161862" class="icon" viewBox="0 0 1024 1024" version="1.1" xmlns="http://www.w3.org/2000/svg" p-id="16814" xmlns:xlink="http://www.w3.org/1999/xlink" width="200" height="200"><defs><style type="text/css"></style></defs><path d="M990.5664 715.1104a48.128 48.128 0 0 0-46.336-39.0144c-0.3584 0-39.0656-0.512-53.8624-26.112-14.7456-25.4976 4.1472-59.2896 4.3008-59.5968a45.7216 45.7216 0 0 0-12.1856-58.88l-51.968-30.0544-1.3312-0.6656a45.4656 45.4656 0 0 0-57.1392 18.7392c-0.1536 0.3072-20.1216 33.5872-49.4592 33.5872-29.5424 0-49.3568-33.28-49.5104-33.5872a46.08 46.08 0 0 0-39.5264-22.3744 43.4176 43.4176 0 0 0-17.6128 3.584l-51.968 29.8496-1.3312 0.8704a45.7216 45.7216 0 0 0-12.2368 58.88c0.2048 0.3584 19.0976 34.0992 4.352 59.6992-14.7456 25.5488-53.4528 26.0608-53.8624 26.0608a48.128 48.128 0 0 0-46.2848 39.0144c-0.1024 0.4608-1.9456 11.264-1.9456 31.744 0 20.5824 1.8432 31.3856 1.9456 31.8464a48.128 48.128 0 0 0 46.2848 39.0144c0.4096 0 39.1168 0.512 53.8624 26.112 14.7456 25.4976-4.096 59.2896-4.3008 59.5968a45.7728 45.7728 0 0 0 12.1856 58.88l51.968 30.0544 1.3312 0.6656a45.4656 45.4656 0 0 0 57.1392-18.7392c0.1536-0.3072 20.1216-33.6384 49.5104-33.6384 29.4912 0 49.3056 33.3312 49.5104 33.6384a45.4656 45.4656 0 0 0 57.088 18.7392l51.968-29.7984 1.3312-0.8704a45.7216 45.7216 0 0 0 12.2368-58.88c-0.2048-0.3584-19.0976-34.1504-4.352-59.6992 14.7456-25.6 53.4528-26.112 53.8624-26.112a48.128 48.128 0 0 0 46.336-38.9632c0.0512-0.512 1.8944-11.264 1.8944-31.7952 0-20.48-1.8432-31.3344-1.8944-31.744z m-240.4352 79.5648a55.1424 55.1424 0 1 1-55.1424-95.5392 55.1424 55.1424 0 0 1 55.1424 95.5392z" fill="#becbd8" p-id="16815"></path><path d="M531.968 891.8528c3.072-5.632 10.9056-25.088 4.352-36.5056-6.6048-11.4176-27.4432-14.3872-34.2528-14.5408-33.28 0-62.976-25.0368-68.7104-58.2144a227.84 227.84 0 0 1-2.2016-35.6864c0-21.4016 1.8432-33.4336 2.2016-35.6352a70.8608 70.8608 0 0 1 69.12-58.2656c6.4-0.1536 27.2384-3.1232 33.792-14.5408 6.656-11.3664-1.2288-30.9248-4.4544-36.864a69.0176 69.0176 0 0 1 18.5856-88.6784l3.6352-2.4064 54.1184-30.8736c8.4992-3.7376 17.664-5.632 26.9312-5.632h0.6144a401.7152 401.7152 0 0 0-74.6496-32.6144 225.9456 225.9456 0 1 0-246.8864 0 404.0704 404.0704 0 0 0-280.4224 384.6656V829.696l0.0512 3.5328c1.9456 65.024 56.3712 117.248 123.3408 117.248h370.5344c-7.168-18.7904-6.144-40.4992 4.352-58.624z" fill="#becbd8" p-id="16816"></path></svg>