<?xml version="1.0" standalone="no"?><!DOCTYPE svg PUBLIC "-//W3C//DTD SVG 1.1//EN" "http://www.w3.org/Graphics/SVG/1.1/DTD/svg11.dtd"><svg t="1611296081201" class="icon" viewBox="0 0 1024 1024" version="1.1" xmlns="http://www.w3.org/2000/svg" p-id="15416" xmlns:xlink="http://www.w3.org/1999/xlink" width="200" height="200"><defs><style type="text/css"></style></defs><path d="M217.125 786.803h307.203v68.704H217.125zM217.125 563.521h307.203v68.703H217.125zM217.125 678.024h307.203v68.704H217.125z" fill="" p-id="15417"></path><path d="M848.61 550.87h92.882V377.755h34.217c19.553 0 29.332-9.774 29.332-29.327v-44c0-14.664-4.888-24.442-19.551-29.328-151.545-73.33-303.088-141.77-454.633-210.207-14.67-4.889-24.444-4.889-34.223 0C349.98 133.33 203.325 196.884 56.671 265.322c-14.668 4.889-29.333 9.778-34.222 24.442v63.549c4.889 14.668 19.553 19.557 39.106 29.332h29.332v439.967c0 14.666 4.89 29.332 14.668 43.996 9.774 9.778 24.442 19.554 39.106 19.554h39.111V509.746H848.61v41.124zM335.316 363.092c0 4.889 0 9.778-9.779 9.778H188.658c-4.885 0-9.774 0-9.774-9.778v-43.997c0-4.889 4.889-9.778 9.774-9.778h136.88c4.89 0 9.779 4.889 9.779 9.778v43.997z m254.198 0c0 4.889-4.884 9.778-9.773 9.778h-68.438c-24.443 0-44 0-68.442-4.889-4.89 0-9.774 0-9.774-9.779v-39.107c0-4.889 0-9.778 9.774-9.778h136.88c4.89 0 9.773 4.889 9.773 9.778v43.997z m249.318 0c0 4.889 0 9.778-9.777 9.778h-68.439c-19.557 0-43.997 0-63.551-4.889-9.777 0-14.663 0-14.663-9.779v-39.107c0-4.889 0-9.778 9.771-9.778h136.882c4.89 0 9.777 0 9.777 9.778v43.997z" fill="" p-id="15418"></path><path d="M983.167 719.297l-36.212-5.58c-9.656-1.483-19.738-9.228-22.434-17.211-2.671-7.959-7.811-33.873-2.033-41.748l21.688-29.571c5.773-7.883 4.854-19.977-2.057-26.879l-15.857-15.868c-6.911-6.908-19.003-7.838-26.879-2.041l-29.57 21.675c-7.883 5.784-20.409 7.451-27.829 3.707-7.431-3.74-29.659-18.515-31.14-28.162l-5.578-36.212c-1.482-9.672-10.698-17.566-20.467-17.566h-22.43c-9.769 0-18.985 7.895-20.466 17.554l-5.581 36.212c-1.481 9.66-9.227 19.74-17.206 22.434-7.976 2.683-33.878 7.818-41.763 2.034L647.792 580.4c-7.884-5.788-19.987-4.857-26.889 2.041l-15.855 15.868c-6.924 6.912-7.842 19.005-2.058 26.879l21.689 29.571c5.774 7.886 7.439 20.398 3.709 27.829-3.743 7.43-18.519 29.646-28.165 31.13l-36.213 5.58c-9.672 1.481-17.566 10.698-17.566 20.466v22.431c0 9.767 7.895 18.982 17.555 20.466l36.212 5.578c9.659 1.481 19.74 9.239 22.433 17.207 2.672 7.974 7.811 33.891 2.036 41.763l-21.688 29.573c-5.775 7.885-4.856 19.987 2.056 26.877l15.855 15.867c6.912 6.913 19.005 7.843 26.889 2.055l29.57-21.697c7.886-5.765 20.401-7.44 27.829-3.711 7.433 3.744 29.648 18.52 31.13 28.167l5.583 36.213c1.481 9.66 10.685 17.555 20.464 17.555h22.434c9.765 0 18.98-7.895 20.463-17.555l5.58-36.213c1.482-9.66 9.225-19.741 17.208-22.424 7.972-2.681 33.878-7.808 41.749-2.032l29.582 21.697c7.887 5.776 19.979 4.846 26.881-2.055l15.855-15.867c6.923-6.901 7.843-19.004 2.055-26.877l-21.685-29.573c-5.776-7.884-7.444-20.398-3.711-27.819 3.743-7.441 18.519-29.668 28.166-31.15l36.21-5.578c9.659-1.483 17.554-10.689 17.554-20.466v-22.431c0.014-9.77-7.883-18.987-17.542-20.468zM773.584 840.794c-49.604 0-89.815-40.212-89.815-89.816s40.212-89.814 89.815-89.814 89.814 40.211 89.814 89.814c0.001 49.604-40.21 89.816-89.814 89.816z m-54.23-89.816" fill="" p-id="15419"></path></svg>