<svg t="1629003696867" class="icon" viewBox="0 0 1024 1024" version="1.1" xmlns="http://www.w3.org/2000/svg" p-id="4993" width="200" height="200"><path d="M879.9 438.1c-6.5-34.7-30.6-57.7-62.3-57.7h-1.4c-32.1 0-58.3-26.3-58.3-58.5 0-7.3 3.6-17.9 5.1-21.6 13.6-30.8 3.2-68.5-25.2-88.3L649 162.2l-3.6-1.7c-9-3.8-18.8-5.8-28.6-5.7-20.6 0-41.3 8-55.2 22.5-13.3 13.7-37.1 29.6-48 29.6-11 0-35-16.3-48.1-30.2-21.9-22.3-55.1-29.2-84-17.3l-92.8 50.9-3.6 2.3c-27.7 19.8-37.9 56.3-24.5 87.6 1.7 4 5.3 14.5 5.3 21.8 0 32.2-26.2 58.5-60.5 58.5h-1.5c-29.4 0-53.5 23-60 58.3-1.8 9.9-7.6 44.4-7.6 73.1 0 28.7 5.8 63.1 7.7 73.7 6.6 34.6 30.8 57.7 60.2 57.7h3.6c32 0 58.3 26.3 58.3 58.4 0 7-3.3 17.3-5.2 21.6-13.5 30.7-3.2 68.4 24.6 88l87.6 49.4 3.6 1.7c8.9 4 18.7 5.8 28.6 5.8 20.9 0 42.1-8.5 55.9-23.6 12.9-14.1 38.2-31.6 49-31.6 11.3 0 35.8 17.4 49.3 32.2 13.9 15.4 34.1 24.3 55.8 24.3 10.2 0 19.8-1.9 28.8-5.8l91.2-50.3 3.6-2.3c27.5-19.3 38-56.9 24.4-87.5-1.6-4-5.2-14.6-5.2-21.8 0-32.2 26.2-58.4 60.7-58.4 29.6-0.4 54.6-22.7 61.3-58.3 1.8-9.9 7.6-44.4 7.6-73.1 0-28.8-5.9-63.5-7.8-73.9z m-52.8 137c-1.3 6.9-4.9 14.3-9.3 14.3-63.4 0-113.6 49.2-113.6 112.2 0 18.6 7.2 37.2 9.3 42.5 3.6 8.2 0.7 18.4-5.7 22.8l-0.2 0.1-86.8 47.9c-1.9 0.6-3.9 0.8-5.8 0.8-5.9 0.1-11.6-2.2-15.8-6.4-4.9-5.3-46.8-49.9-89.2-49.9-43.1 0-88 48.4-88.5 48.8-6.1 5.7-14.9 7.7-22.9 5.3l-0.9-0.4-82.9-46.8c-6-5.3-8-13.8-5.1-21.3 1.9-4.5 9.7-24 9.7-43.3 0-61.8-50.1-112-111.9-112.2H204c-1.3-0.3-5.5-4.4-7.4-14-1.5-8.5-6.7-39.7-6.7-63.7 0-19.1 3.4-45.2 6.7-63.5 1.7-9.1 5.7-13.5 7-14.2h1.7c64-0.1 114.2-49.4 114.2-112.3 0-19.3-7.9-38.9-9.5-42.6-3.3-7.8-1.2-16.9 5.3-22.4l0.9-0.5 88-48.3c7.9-2.1 16.3-0.1 22.3 5.5 1.8 1.9 45 46.9 87.2 46.9 41.6 0 84.7-44.1 86.5-46 4.6-4.1 10.5-6.3 16.6-6.2 2.4 0 4.7 0.4 6.5 1.1l0.7 0.4 84.4 47.1c6.1 5.4 8.6 14.6 5.5 21.6-1.9 4.5-9.7 23.8-9.7 43.3 0 61.9 50 112.1 111.9 112.2 7.7 0 10.1 9.8 10.9 14 3.2 17.9 6.8 44.3 6.8 63.7 0.1 19.6-3.5 46.4-6.7 63.5z m0 0" p-id="4994"></path><path d="M511.9 368.4c-52-1.3-100.5 25.8-126.9 70.6-26.4 44.8-26.4 100.4 0 145.2 26.3 44.8 74.9 71.9 126.9 70.6 78.2-1.3 140.8-65 140.9-143.2-0.1-78.2-62.7-141.9-140.9-143.2z m0 232.6c-49.4 0-89.5-40.1-89.5-89.4 0-49.4 40.1-89.5 89.5-89.5s89.5 40.1 89.5 89.5c-0.1 49.3-40.1 89.4-89.5 89.4z m0 0" p-id="4995"></path></svg>
