<svg t="1629351798603" class="icon" viewBox="0 0 1117 1024" version="1.1" xmlns="http://www.w3.org/2000/svg" p-id="1240" width="200" height="200"><path d="M884.63812 837.651824h-139.761132a46.587044 46.587044 0 0 1 0-93.174088h139.761132a139.761132 139.761132 0 0 0 31.67919-275.329431 46.587044 46.587044 0 0 1-35.406153-52.64336 279.522264 279.522264 0 0 0-543.670805-123.921537 46.587044 46.587044 0 0 1-42.86008 33.076801 209.641698 209.641698 0 0 0 7.919797 419.283397h69.880566a46.587044 46.587044 0 0 1 0 93.174088h-69.880566a302.815786 302.815786 0 0 1-43.791821-602.37048 372.696353 372.696353 0 0 1 719.30396 136.034169v19.566559a232.93522 232.93522 0 0 1-93.174088 446.303882z m-279.522264 139.761132v-512.457485a46.587044 46.587044 0 0 0-74.539271-37.269635l-186.348176 139.761132a46.587044 46.587044 0 1 0 55.904453 74.539271l111.808906-83.85668v419.283397a46.587044 46.587044 0 0 0 93.174088 0z m177.030767-344.744126a46.587044 46.587044 0 0 0-9.317409-65.221862l-46.587044-34.940283a46.587044 46.587044 0 0 0-55.904452 74.539271l46.587044 34.940283a46.587044 46.587044 0 0 0 65.221861-9.317409z" fill="#3E2AD1" p-id="1241"></path></svg>
