<svg t="1629352569647" class="icon" viewBox="0 0 1024 1024" version="1.1" xmlns="http://www.w3.org/2000/svg" p-id="4532" width="200" height="200"><path d="M106.154667 440.234667L461.738667 104.96a74.24 74.24 0 0 1 100.522666 0l355.584 335.274667a64.341333 64.341333 0 0 1 0 94.72 74.24 74.24 0 0 1-100.522666 0L583.082667 314.282667v642.730666c0 37.034667-31.829333 67.072-71.082667 67.072-39.253333 0-71.082667-30.037333-71.082667-67.072V314.197333L206.677333 535.04a73.130667 73.130667 0 0 1-50.261333 19.626667 73.045333 73.045333 0 0 1-50.261333-19.626667 64.341333 64.341333 0 0 1 0-94.805333z" fill="#ED6632" p-id="4533"></path></svg>
